<svg enable-background="new 0 0 492.994 492.994" viewBox="0 0 492.994 492.994" xmlns="http://www.w3.org/2000/svg"><path d="m277.309 263.93v-46.218l-30.812-23.109v-23.109l-92.436-69.327v161.763h-42.367c-31.907 0-57.773 25.866-57.773 57.773s25.866 57.773 57.773 57.773h186.611c56.473 0 102.253-45.78 102.253-102.253v-13.293zm-92.436-1.284v1.284h-4.402z" fill="#fcea10"/><path d="m354.34 271.633v84.734l30.812-23.109 15.406-38.515-7.703-30.813z" fill="#be1622"/><circle cx="100.14" cy="325.555" fill="#fdf270" r="38.515"/><path d="m154.061 379.476c0-29.78 24.141-53.921 53.921-53.921s53.921 24.141 53.921 53.921" fill="#be1622"/><g fill="#1d1d1b"><path d="m177.373 144.533h15v154.061h-15z"/><path d="m208.185 167.643h15v53.921h-15z"/><path d="m238.997 190.752h15v53.921h-15z"/><path d="m92.437 302.649h15.406v15h-15.406z"/><path d="m469.885 318.055h23.109v15h-23.109z"/><path d="m146.561 102.167h15v146.357h-15z"/><path d="m397.311 318.055c6.496-14.454 10.284-30.378 10.707-47.125l53.69-53.691-10.607-10.607-53.65 53.651h-112.641v-46.423h-15v61.422h122.99c-3.862 56.093-50.73 100.545-107.787 100.545h-15.727c-1.896-32.174-28.662-57.772-61.303-57.772-32.643 0-59.409 25.598-61.304 57.772h-34.984c-27.721 0-50.272-22.552-50.272-50.272s22.552-50.272 50.272-50.272h57.772v-15h-57.772c-33.454 0-61.095 25.302-64.828 57.772h-46.867v15h46.866c3.734 32.47 31.375 57.772 64.828 57.772h173.318c43.886 0 82.472-23.099 104.258-57.772h72.911v-15zm-235.593 57.772c1.869-23.896 21.897-42.772 46.265-42.772s44.395 18.876 46.264 42.772z"/></g></svg>