<svg height="218" viewBox="0 0 234 218" width="234" xmlns="http://www.w3.org/2000/svg">
    <g fill="#4a4a4a" fill-rule="evenodd">
        <path
            d="m42.32 138.242c9.466 0 17.164-10.334 17.164-23.038s-7.698-23.038-17.164-23.038c-9.468 0-17.166 10.334-17.166 23.038s7.698 23.038 17.166 23.038z"/>
        <path
            d="m83.236 138.242c9.456 0 17.164-10.334 17.164-23.038s-7.707-23.038-17.164-23.038c-9.468 0-17.166 10.334-17.166 23.038s7.698 23.038 17.166 23.038z"/>
        <path
            d="m115.279 126.751c-7.445-1.466-14.79 5.101-16.732 14.963-1.939 9.851 2.367 18.714 9.813 20.179 7.437 1.464 14.791-5.103 16.73-14.954 1.942-9.861-2.375-18.724-9.811-20.188z"/>
        <path
            d="m27.007 141.714c-1.942-9.862-9.286-16.429-16.732-14.963-7.436 1.464-11.753 10.326-9.811 20.189 1.939 9.851 9.293 16.418 16.73 14.954 7.446-1.466 11.752-10.329 9.813-20.18z"/>
        <path
            d="m88.687 167.066c-2.02-12.482-12.867-22.045-25.91-22.045s-23.891 9.563-25.91 22.045c-9.284 4.05-15.791 13.313-15.791 24.071 0 14.475 11.776 26.251 26.251 26.251 5.772 0 11.112-1.877 15.451-5.047 4.338 3.17 9.678 5.047 15.451 5.047 14.475 0 26.251-11.776 26.251-26.251-.001-10.758-6.51-20.021-15.793-24.071z"/>
        <path
            d="m150.32 46.242c9.466 0 17.164-10.334 17.164-23.038s-7.698-23.038-17.164-23.038c-9.468 0-17.166 10.334-17.166 23.038s7.698 23.038 17.166 23.038z"/>
        <path
            d="m191.236 46.242c9.456 0 17.164-10.334 17.164-23.038s-7.707-23.038-17.164-23.038c-9.468 0-17.166 10.334-17.166 23.038s7.698 23.038 17.166 23.038z"/>
        <path
            d="m223.279 34.751c-7.445-1.466-14.79 5.101-16.732 14.963-1.939 9.851 2.367 18.714 9.813 20.179 7.437 1.464 14.791-5.103 16.73-14.954 1.942-9.861-2.375-18.724-9.811-20.188z"/>
        <path
            d="m125.194 69.894c7.445-1.466 11.752-10.329 9.813-20.179-1.942-9.862-9.286-16.429-16.732-14.963-7.436 1.464-11.753 10.326-9.811 20.189 1.94 9.85 9.294 16.417 16.73 14.953z"/>
        <path
            d="m196.687 75.066c-2.02-12.482-12.867-22.045-25.91-22.045s-23.891 9.563-25.91 22.045c-9.284 4.05-15.791 13.313-15.791 24.071 0 14.475 11.776 26.251 26.251 26.251 5.772 0 11.112-1.877 15.451-5.047 4.338 3.17 9.678 5.047 15.451 5.047 14.475 0 26.251-11.776 26.251-26.251-.001-10.758-6.51-20.021-15.793-24.071z"/>
    </g>
</svg>
