<svg enable-background="new 0 0 365.986 365.986" viewBox="0 0 365.986 365.986" xmlns="http://www.w3.org/2000/svg"><path d="m311.669 227.16c-5.952 0-10.778-4.826-10.778-10.778 0-5.953 4.826-10.778 10.778-10.778 18.064 0 32.761-14.697 32.761-32.762 0-18.064-14.696-32.761-32.761-32.761-29.951 0-54.318-24.367-54.318-54.318s24.367-54.318 54.318-54.318c5.952 0 10.778 4.826 10.778 10.778 0 5.953-4.826 10.778-10.778 10.778-18.065 0-32.762 14.697-32.762 32.761s14.696 32.762 32.762 32.762c29.95 0 54.317 24.367 54.317 54.317 0 29.951-24.367 54.319-54.317 54.319z" fill="#967a4a"/><path d="m61.269 230.35c-13.046 0-23.62 10.575-23.62 23.619v49.082h-21.869c-8.694 0-15.745 7.049-15.745 15.745v8.639c0 3.925 3.181 7.107 7.108 7.107h61.998c8.695 0 15.745-7.049 15.745-15.746v-64.827c.001-13.046-10.574-23.619-23.617-23.619z" fill="#826a40"/><path d="m255.978 155.107h-203.936v103.823c0 39.053 31.659 70.711 70.711 70.711h133.225v-.503c48.059 0 87.016-38.958 87.016-87.015-.001-48.058-38.958-87.016-87.016-87.016z" fill="#967a4a"/><path d="m164.144 155.107v51.166c0 9.684 7.851 17.535 17.535 17.535 9.685 0 17.536-7.851 17.536-17.535v-51.166z" fill="#65513c"/><path d="m225.148 155.107v51.166c0 9.684 7.852 17.535 17.535 17.535 9.686 0 17.536-7.851 17.536-17.535v-51.166z" fill="#65513c"/><path d="m264.599 213.898c-33.313 0-60.321 27.006-60.321 60.321 0 10.443 2.655 20.265 7.325 28.831h-6.36c-8.694 0-15.745 7.049-15.745 15.745v8.639c0 3.925 3.181 7.107 7.108 7.107h67.993c33.314 0 60.322-27.006 60.322-60.322 0-33.315-27.008-60.321-60.322-60.321z" fill="#ad8d56"/><path d="m140.761 230.35c-13.046 0-23.619 10.575-23.619 23.619v49.082h-21.869c-8.695 0-15.745 7.049-15.745 15.745v8.639c0 3.925 3.181 7.107 7.107 7.107h61.998c8.695 0 15.745-7.049 15.745-15.746v-64.827c.001-13.046-10.574-23.619-23.617-23.619z" fill="#ad8d56"/><path d="m172.395 84.364v-39.443c0-4.543-3.681-8.224-8.224-8.224-2.165 0-4.135.836-5.604 2.204l-31.324 31.324c-11.747-7.845-25.859-12.426-41.046-12.426s-29.3 4.581-41.047 12.427l-31.324-31.325c-1.469-1.368-3.438-2.204-5.602-2.204-4.542 0-8.224 3.681-8.224 8.224v99.252c0 47.606 38.592 92.008 86.198 92.008 47.605 0 86.198-44.402 86.198-92.008z" fill="#967a4a"/><path d="m103.257 142.327h-34.12c-10.373 0-18.782 8.41-18.782 18.783 0 10.374 8.409 18.783 18.782 18.783 7.578 0 14.09-4.496 17.061-10.957 2.97 6.461 9.482 10.957 17.06 10.957 10.373 0 18.783-8.409 18.783-18.783-.001-10.374-8.411-18.783-18.784-18.783z" fill="#fff"/><g fill="#333e48"><circle cx="36.573" cy="125.824" r="8.601"/><circle cx="135.821" cy="125.823" r="8.6"/><path d="m96.843 154.84c-5.394 5.593-14.38 5.753-19.97.356l-6.234-6.02c-5.59-5.398-3.807-9.814 3.964-9.814h23.038c7.77 0 9.714 4.577 4.32 10.17z"/></g><g style="fill:none;stroke:#333e48;stroke-width:3;stroke-linecap:round;stroke-linejoin:round;stroke-miterlimit:10"><path d="m61.742 163.897-33.936 7.947"/><path d="m65.497 171.374-27.994 16.808"/><path d="m59.613 155.658-34.304-1.299"/><path d="m110.652 163.897 33.937 7.947"/><path d="m106.896 171.374 27.995 16.808"/><path d="m112.78 155.658 34.305-1.299"/></g><path d="m86.197 57.799c-6.044 0-11.912.742-17.536 2.108v24.202c0 9.684 7.852 17.535 17.536 17.535s17.535-7.851 17.535-17.535v-24.202c-5.624-1.366-11.491-2.108-17.535-2.108z" fill="#65513c"/></svg>